Storyline

Scooby-Doo and the Mystery Inc. gang become involved in a supernatural mystery in 

Egypt. 


Format                                   : MPEG-4
Format profile                           : Base Media
Codec ID                                 : isom
File size                                : 2.02 GiB
Duration                                 : 1h 14mn
Overall bit rate mode                    : Variable
Overall bit rate                         : 3 879 Kbps
Movie name                               : Scooby-Doo In Where's My Mummy?
Performer                                : Joe Sichta
Genre                                    : Kids & Family
Recorded date                            : UTC 2008-03-01 08:00:00
Tagged date                              : UTC 2012-12-22 08:28:53
Cover                                    : Yes

Video
ID                                       : 1
Format                                   : AVC
Format/Info                              : Advanced Video Codec
Format profile                           : Baseline@L3.0
Format settings, CABAC                   : No
Format settings, ReFrames                : 3 frames
Codec ID                                 : avc1
Codec ID/Info                            : Advanced Video Coding
Duration                                 : 1h 14mn
Bit rate                                 : 3 748 Kbps
Width                                    : 1 280 pixels
Height                                   : 720 pixels
Display aspect ratio                     : 16:9
Frame rate mode                          : Constant
Frame rate                               : 23.976 fps
Color space                              : YUV
Chroma subsampling                       : 4:2:0
Bit depth                                : 8 bits
Scan type                                : Progressive
Bits/(Pixel*Frame)                       : 0.170
Stream size                              : 1.95 GiB (97%)
Writing library                          : x264 core 102
Encoding settings                        : cabac=0 / ref=3 / deblock=1:0:0 / 
Audio
ID                                       : 2
Format                                   : AAC
Format/Info                              : Advanced Audio Codec
Format profile                           : LC
Codec ID                                 : 40
Duration                                 : 1h 14mn
Bit rate mode                            : Variable
Bit rate                                 : 128 Kbps
Maximum bit rate                         : 203 Kbps
Channel(s)                               : 2 channels
Channel positions                        : Front: L R
Sampling rate                            : 48.0 KHz
Compression mode                         : Lossy
Stream size                              : 68.1 MiB (3%)
Language                                 : English

Text
ID                                       : 3